<svg width="100" height="100" viewBox="0 0 100 100" fill="none" xmlns="http://www.w3.org/2000/svg">
<circle cx="50" cy="50" r="50" fill="#E4002B"/>
<path d="M16.256 59V42.2H23.6C25.424 42.2 27.024 42.552 28.4 43.256C29.776 43.96 30.848 44.936 31.616 46.184C32.384 47.432 32.768 48.904 32.768 50.6C32.768 52.28 32.384 53.752 31.616 55.016C30.848 56.264 29.776 57.24 28.4 57.944C27.024 58.648 25.424 59 23.6 59H16.256ZM19.376 56.36H23.456C24.72 56.36 25.808 56.12 26.72 55.64C27.648 55.16 28.36 54.488 28.856 53.624C29.368 52.76 29.624 51.752 29.624 50.6C29.624 49.432 29.368 48.424 28.856 47.576C28.36 46.712 27.648 46.04 26.72 45.56C25.808 45.08 24.72 44.84 23.456 44.84H19.376V56.36ZM33.4737 59L41.0338 42.2H44.1058L51.6898 59H48.4258L41.9218 43.856H43.1698L36.6898 59H33.4737ZM36.9538 55.112L37.7938 52.664H46.8658L47.7057 55.112H36.9538ZM53.8263 59V42.2H60.7383C62.2263 42.2 63.4983 42.44 64.5543 42.92C65.6263 43.4 66.4503 44.088 67.0263 44.984C67.6023 45.88 67.8903 46.944 67.8903 48.176C67.8903 49.408 67.6023 50.472 67.0263 51.368C66.4503 52.264 65.6263 52.952 64.5543 53.432C63.4983 53.912 62.2263 54.152 60.7383 54.152H55.5543L56.9463 52.688V59H53.8263ZM56.9463 53.024L55.5543 51.512H60.5943C61.9703 51.512 63.0023 51.224 63.6903 50.648C64.3943 50.056 64.7463 49.232 64.7463 48.176C64.7463 47.104 64.3943 46.28 63.6903 45.704C63.0023 45.128 61.9703 44.84 60.5943 44.84H55.5543L56.9463 43.304V53.024ZM75.134 59V52.352L75.83 54.272L68.534 42.2H71.87L77.726 51.92H75.854L81.758 42.2H84.83L77.534 54.272L78.254 52.352V59H75.134Z" fill="white"/>
</svg>
